<?xml version="1.0" standalone="no"?>
<!DOCTYPE svg PUBLIC "-//W3C//DTD SVG 20010904//EN"
 "http://www.w3.org/TR/2001/REC-SVG-20010904/DTD/svg10.dtd">
<svg version="1.0" xmlns="http://www.w3.org/2000/svg"
 width="2400.000000pt" height="2400.000000pt" viewBox="0 0 2400.000000 2400.000000"
 preserveAspectRatio="xMidYMid meet">

<g transform="translate(0.000000,2400.000000) scale(0.100000,-0.100000)"
fill="#000000" stroke="none">
<path d="M11621 19247 c6 -14 20 -29 30 -33 18 -8 17 -13 -18 -60 -21 -27 -47
-63 -58 -78 -52 -73 -89 -116 -97 -116 -5 0 -7 4 -4 8 6 10 1 10 -169 18 -125
6 -149 4 -220 -15 -91 -25 -124 -41 -300 -140 -142 -81 -265 -150 -510 -288
-88 -50 -457 -258 -820 -463 -363 -205 -784 -443 -935 -528 -151 -85 -321
-181 -377 -213 -57 -31 -133 -79 -170 -107 -149 -110 -297 -292 -371 -453 -46
-100 -73 -202 -152 -564 -73 -337 -85 -394 -116 -525 -17 -74 -19 -77 -418
-620 -220 -300 -439 -597 -486 -662 -281 -384 -557 -760 -640 -873 -288 -389
-557 -763 -568 -788 -31 -73 -5 -214 51 -276 12 -13 15 -20 7 -16 -46 26 -490
342 -517 368 -29 27 -34 29 -45 15 -7 -8 -84 -112 -171 -229 -87 -118 -166
-225 -176 -239 -19 -24 -20 -25 -47 -8 -95 57 -114 63 -142 48 -30 -17 -156
-178 -178 -227 -19 -45 -5 -75 56 -119 28 -20 49 -42 47 -48 -5 -12 -96 -138
-678 -931 -189 -258 -350 -483 -357 -498 -19 -43 -15 -122 8 -167 13 -26 45
-58 90 -91 79 -57 78 -44 12 -175 -170 -339 -329 -792 -391 -1109 -42 -217
-46 -258 -45 -505 0 -269 11 -343 74 -531 144 -432 498 -757 960 -882 163 -45
436 -54 630 -23 471 76 940 285 1748 780 122 75 225 136 227 136 3 0 73 41
157 92 184 111 526 285 623 317 39 12 104 25 145 27 l75 5 90 -86 c50 -47 100
-90 113 -96 36 -14 84 -11 119 8 34 19 232 227 264 278 21 34 25 95 7 128 -37
72 -179 203 -293 272 -178 107 -396 120 -663 39 -189 -57 -459 -186 -713 -341
-558 -340 -923 -556 -1076 -638 -345 -184 -639 -296 -888 -339 -484 -84 -888
155 -997 589 -19 78 -22 116 -22 280 0 210 12 296 69 520 65 252 186 577 301
807 l34 67 55 -6 c68 -7 129 14 172 60 29 30 141 181 736 992 141 193 269 365
284 383 l28 33 55 -36 c58 -37 76 -41 112 -24 23 11 166 195 181 233 13 32
-11 71 -64 107 -27 19 -49 39 -49 44 0 10 287 403 337 463 l28 32 65 -21 c81
-26 144 -20 218 18 43 23 69 49 140 142 48 63 92 116 99 118 6 2 14 -4 17 -14
6 -20 53 -238 91 -428 57 -283 95 -436 128 -518 100 -248 318 -457 578 -557
92 -35 113 -39 959 -196 74 -14 216 -41 315 -61 167 -32 190 -35 310 -30 152
7 236 27 370 92 179 86 262 166 474 458 78 105 225 307 328 447 201 274 243
330 543 741 418 571 471 656 529 846 55 179 74 380 52 543 -5 36 -13 113 -16
171 l-7 105 116 -4 c248 -10 414 71 569 275 301 399 937 1280 973 1348 81 151
116 285 134 510 46 589 54 648 101 790 60 181 151 313 348 505 162 158 189
198 216 317 31 136 16 179 -210 613 -289 552 -266 516 -396 605 -41 28 -91 51
-130 61 -65 17 -109 15 -439 -15 -65 -6 -152 -1 -200 12 -48 13 -126 52 -156
78 -11 11 -25 19 -31 19 -6 0 -13 6 -16 14 -3 7 -19 23 -36 36 l-31 22 11 -25z
m-3007 -4022 c43 -8 115 -32 160 -53 136 -64 946 -510 946 -521 0 -3 -143 -34
-317 -69 -318 -62 -647 -134 -798 -173 -106 -28 -244 -95 -330 -162 -131 -100
-255 -277 -299 -427 -77 -256 -276 -1385 -276 -1561 0 -63 13 -87 56 -105 29
-12 39 -12 67 0 40 16 50 31 115 176 132 297 280 670 442 1115 77 213 102 259
176 324 64 56 132 85 244 105 52 10 115 21 140 26 25 5 97 19 160 30 206 38
600 119 705 145 103 25 318 75 324 75 5 0 11 -28 15 -62 20 -190 36 -382 36
-449 0 -90 -29 -211 -68 -283 -15 -28 -219 -312 -453 -631 -539 -735 -629
-858 -819 -1118 -153 -209 -156 -212 -223 -246 -102 -52 -122 -50 -717 68
-283 56 -551 109 -595 117 -130 25 -171 42 -229 95 -65 59 -88 105 -119 241
-14 56 -51 211 -82 343 -32 132 -63 265 -70 295 -7 30 -43 183 -80 340 -38
157 -70 301 -72 320 -4 32 5 48 84 155 49 66 158 215 242 330 85 116 184 251
221 300 36 50 86 117 111 151 201 276 497 679 596 812 136 181 249 259 428
297 84 18 186 18 279 0z"/>
<path d="M17815 17549 c-499 -52 -992 -310 -1318 -689 -276 -321 -435 -692
-477 -1109 -89 -902 473 -1753 1351 -2045 209 -70 352 -96 554 -101 94 -2 154
-1 135 1 -326 42 -523 98 -765 219 -83 42 -266 154 -285 175 -3 3 -37 30 -76
61 -206 165 -383 386 -509 634 -91 180 -123 272 -172 484 -26 111 -27 129 -27
391 0 246 2 285 21 371 55 243 122 423 232 614 57 100 200 289 283 375 328
339 761 555 1233 615 l100 13 -100 -1 c-55 0 -136 -3 -180 -8z"/>
<path d="M16792 12817 c-10 -11 -33 -90 -47 -160 -6 -29 -7 -30 -71 -47 -50
-12 -90 -50 -103 -98 -6 -19 -8 -69 -4 -111 l6 -76 117 0 117 0 12 39 c27 88
35 191 24 313 -15 150 -23 174 -51 140z"/>
<path d="M18947 11949 c-55 -9 -88 -37 -120 -101 -20 -42 -43 -69 -86 -102
-110 -85 -161 -168 -161 -263 0 -57 17 -100 73 -183 16 -25 16 -27 -13 -62
-21 -26 -41 -38 -68 -43 -48 -8 -102 -40 -102 -59 0 -20 54 -59 115 -82 41
-15 76 -19 190 -19 131 0 144 2 198 27 93 44 85 76 -25 100 -32 6 -58 17 -58
23 0 6 30 18 66 28 101 26 226 89 274 137 23 23 56 72 72 108 27 59 30 74 26
146 -4 102 -37 177 -107 245 -80 78 -183 116 -274 100z"/>
<path d="M18984 9016 c-11 -28 1 -50 46 -83 96 -72 108 -83 144 -137 20 -31
40 -56 44 -56 4 0 22 13 39 29 l32 29 -27 81 c-27 79 -28 81 -60 81 -19 0 -70
16 -113 35 -90 39 -97 41 -105 21z"/>
<path d="M15205 8824 c-77 -8 -153 -19 -168 -25 -179 -74 -380 -460 -600
-1149 -83 -261 -85 -267 -45 -195 67 121 144 211 201 235 28 12 399 75 535 90
60 7 171 10 260 8 131 -4 167 -9 215 -27 113 -44 152 -100 166 -237 20 -196
-31 -327 -155 -400 -34 -20 467 89 719 157 59 16 110 29 112 29 12 0 2 47 -36
179 -145 506 -431 951 -816 1267 l-101 84 -74 -1 c-40 -1 -136 -7 -213 -15z"/>
<path d="M15891 8773 c75 -72 206 -221 285 -328 205 -274 363 -609 454 -959
24 -93 31 -111 47 -108 26 4 135 36 328 97 94 29 171 52 172 52 0 -1 -5 -72
-13 -157 -7 -85 -13 -245 -14 -355 0 -264 18 -426 89 -810 67 -363 84 -574 86
-1070 1 -408 1 -411 29 -540 15 -71 34 -152 42 -179 19 -68 18 -74 -13 -78
-25 -3 -28 -7 -25 -33 5 -44 74 -182 125 -251 31 -41 57 -94 85 -174 45 -128
121 -320 147 -369 9 -18 27 -37 40 -43 33 -15 40 -69 25 -205 -14 -137 -26
-189 -52 -230 -33 -54 -22 -63 82 -63 l90 0 49 68 c28 37 50 74 51 83 0 19
-62 144 -86 170 -12 14 -19 41 -22 97 l-4 79 35 21 c45 26 85 102 142 267 l41
120 115 8 c63 5 125 11 139 14 23 5 22 6 -15 21 -55 21 -127 74 -160 118 l-28
36 13 97 c13 104 11 233 -10 521 -18 252 -1 826 25 866 50 76 143 146 225 168
l55 15 -67 0 c-59 1 -76 -4 -143 -38 l-76 -40 6 47 c3 26 10 79 16 117 5 39
25 189 44 335 41 309 69 512 95 700 10 74 29 210 42 302 12 92 25 162 29 156
4 -6 10 -39 14 -72 41 -389 183 -1332 240 -1593 86 -399 202 -727 391 -1102
185 -368 415 -710 577 -857 40 -37 47 -49 62 -118 17 -77 17 -78 -6 -149 -13
-40 -24 -96 -24 -124 0 -44 4 -57 28 -80 24 -24 36 -28 100 -31 96 -4 122 10
121 63 -2 45 -45 198 -63 218 -37 45 -42 95 -45 477 -4 358 -12 516 -52 920
-39 410 -103 833 -169 1125 -169 743 -230 1197 -250 1855 -5 189 -27 477 -41
543 -3 15 -10 27 -16 27 -6 0 -41 -14 -77 -31 -280 -133 -559 -193 -896 -193
-319 0 -599 53 -886 168 -36 15 -70 26 -75 25 -5 -2 -72 29 -149 68 -232 117
-502 217 -755 278 -121 29 -355 71 -450 80 -36 3 -87 8 -113 11 l-48 6 62 -59z"/>
<path d="M10054 8719 c-629 -360 -1261 -777 -1939 -1279 l-209 -155 434 -3
c239 -1 1520 -1 2845 0 2275 3 2414 4 2485 21 195 47 302 90 355 143 43 43
105 165 230 459 99 232 365 887 365 899 0 4 -992 6 -2203 6 l-2204 0 -159 -91z"/>
<path d="M14697 7022 c-29 -30 -34 -44 -14 -37 6 2 71 9 142 15 72 7 189 20
260 30 l130 18 -246 1 -245 1 -27 -28z"/>
<path d="M13405 5081 c-296 -172 -495 -603 -495 -1073 0 -142 19 -302 49 -418
l18 -68 -141 -26 c-78 -15 -191 -36 -251 -47 -82 -16 -117 -27 -138 -45 l-28
-24 36 -71 c48 -97 83 -145 146 -204 67 -63 109 -89 179 -109 147 -43 499 -58
760 -32 97 10 118 14 95 21 -179 47 -343 258 -427 545 -78 268 -79 642 -2 930
86 326 265 569 460 626 30 8 54 17 54 20 0 2 -60 4 -132 4 -128 0 -135 -1
-183 -29z"/>
<path d="M5900 3281 c0 -32 151 -176 225 -214 175 -89 575 -131 1050 -109 341
16 400 33 530 153 47 44 135 154 135 170 0 5 -401 9 -970 9 -539 0 -970 -4
-970 -9z"/>
</g>
</svg>
